<svg xmlns="http://www.w3.org/2000/svg" version="1.1" viewBox="-5.0 -10.0 110.0 135.0">
 <path d="m10.035 67.449-3.4102 12.008c-0.83984 2.9531-0.25781 6.0508 1.5898 8.5s4.6719 3.8555 7.7422 3.8555l68.086-0.003906c3.0703 0 5.8906-1.4062 7.7422-3.8555 1.8516-2.4492 2.4297-5.5469 1.5898-8.5l-3.4102-12.008c-2.7773-9.7812-11.82-16.609-21.984-16.609h-1.7109c5.0078-4.4805 8.1797-10.969 8.1797-18.199 0-13.48-10.969-24.449-24.449-24.449s-24.449 10.969-24.449 24.449c0 7.2305 3.1719 13.719 8.1797 18.199l-1.7109 0.003906c-10.164 0-19.207 6.8281-21.984 16.609zm21.766-34.809c0-10.035 8.1641-18.199 18.199-18.199s18.199 8.1641 18.199 18.199-8.1641 18.199-18.199 18.199-18.199-8.1641-18.199-18.199zm36.18 24.449c7.3867 0 13.953 4.9609 15.973 12.066l3.4102 12.008c0.30078 1.0508 0.089844 2.1523-0.56641 3.0234s-1.6602 1.3711-2.7539 1.3711h-68.086c-1.0938 0-2.0977-0.5-2.7539-1.3711s-0.86328-1.9727-0.56641-3.0234l3.4102-12.008c2.0195-7.1055 8.5859-12.066 15.973-12.066z"/>
<text x="0.0" y="117.5" font-size="5.0" font-weight="bold" font-family="Arbeit Regular, Helvetica, Arial-Unicode, Arial, Sans-serif" fill="#000000">Created by Riyan Resdian</text><text x="0.0" y="122.5" font-size="5.0" font-weight="bold" font-family="Arbeit Regular, Helvetica, Arial-Unicode, Arial, Sans-serif" fill="#000000">from Noun Project</text></svg>